<svg width="258" height="40" viewBox="0 0 258 40" fill="none" xmlns="http://www.w3.org/2000/svg">
<path d="M14.952 1.13V31.16C15.848 31.356 16.716 31.664 17.556 32.084C18.424 32.504 19.306 32.924 20.202 33.344C21.098 33.764 22.036 34.128 23.016 34.436C24.024 34.744 25.116 34.898 26.292 34.898C27.272 34.898 28.35 34.618 29.526 34.058C29.61 34.45 29.652 34.828 29.652 35.192C29.652 35.78 29.54 36.326 29.316 36.83C29.12 37.362 28.812 37.824 28.392 38.216C28 38.608 27.51 38.916 26.922 39.14C26.362 39.392 25.732 39.518 25.032 39.518C23.94 39.518 22.862 39.168 21.798 38.468C20.734 37.796 19.656 37.04 18.564 36.2C17.472 35.388 16.324 34.632 15.12 33.932C13.944 33.26 12.684 32.924 11.34 32.924C11.172 32.924 11.004 32.924 10.836 32.924C10.696 32.924 10.542 32.938 10.374 32.966V3.398C8.49798 3.93 7.01398 4.84 5.92198 6.128C4.82998 7.416 4.28398 9.026 4.28398 10.958C4.28398 11.714 4.33998 12.358 4.45198 12.89C4.56398 13.394 4.70398 13.842 4.87198 14.234C5.03998 14.598 5.23598 14.92 5.45998 15.2C5.71198 15.452 5.96398 15.69 6.21598 15.914C4.53598 15.914 3.20598 15.536 2.22598 14.78C1.24598 13.996 0.755981 12.68 0.755981 10.832C0.755981 9.488 1.10598 8.228 1.80598 7.052C2.50598 5.848 3.42998 4.798 4.57798 3.902C5.75398 2.978 7.08398 2.25 8.56798 1.718C10.08 1.186 11.634 0.920002 13.23 0.920002C13.538 0.920002 13.832 0.934002 14.112 0.962002C14.42 0.962002 14.714 0.976001 14.994 1.004L14.952 1.13Z" fill="#BDBDBD"/>
<path d="M25.2052 11V25.28C25.2052 25.56 25.2192 25.91 25.2472 26.33C25.2752 26.75 25.3452 27.17 25.4572 27.59C25.5972 27.982 25.7932 28.332 26.0452 28.64C26.2972 28.92 26.6472 29.06 27.0952 29.06C28.4672 29.06 29.4752 27.534 30.1192 24.482H31.6732C31.3652 26.246 30.9732 27.646 30.4972 28.682C30.0212 29.69 29.5172 30.46 28.9852 30.992C28.4532 31.524 27.9072 31.86 27.3472 32C26.7872 32.168 26.2832 32.252 25.8352 32.252C24.8552 32.252 24.0572 32.07 23.4412 31.706C22.8252 31.314 22.3352 30.824 21.9712 30.236C21.6072 29.648 21.3552 28.99 21.2152 28.262C21.0752 27.534 21.0052 26.834 21.0052 26.162V11H25.2052ZM20.2492 4.952C20.2492 4.196 20.5152 3.538 21.0472 2.978C21.5792 2.418 22.2372 2.138 23.0212 2.138C23.7772 2.138 24.4352 2.418 24.9952 2.978C25.5552 3.538 25.8352 4.196 25.8352 4.952C25.8352 5.736 25.5552 6.394 24.9952 6.926C24.4352 7.458 23.7772 7.724 23.0212 7.724C22.2372 7.724 21.5792 7.458 21.0472 6.926C20.5152 6.394 20.2492 5.736 20.2492 4.952Z" fill="#BDBDBD"/>
<path d="M34.2687 11V14.192C34.6887 13.436 35.1087 12.834 35.5287 12.386C35.9767 11.91 36.4247 11.56 36.8727 11.336C37.3207 11.112 37.7407 10.972 38.1327 10.916C38.5527 10.832 38.9447 10.79 39.3087 10.79C40.5687 10.79 41.5767 11.028 42.3327 11.504C43.1167 11.98 43.7047 12.596 44.0967 13.352C44.4887 14.08 44.7407 14.892 44.8527 15.788C44.9927 16.656 45.0627 17.496 45.0627 18.308C45.0627 18.812 45.0487 19.372 45.0207 19.988C44.9927 20.576 44.9647 21.192 44.9367 21.836C44.9087 22.452 44.8807 23.082 44.8527 23.726C44.8247 24.342 44.8107 24.916 44.8107 25.448C44.8107 25.672 44.8247 25.994 44.8527 26.414C44.8807 26.806 44.9507 27.198 45.0627 27.59C45.1747 27.982 45.3567 28.332 45.6087 28.64C45.8607 28.92 46.2247 29.06 46.7007 29.06C47.3447 29.06 47.9187 28.696 48.4227 27.968C48.9547 27.24 49.3887 26.078 49.7247 24.482H51.2787C50.9707 26.246 50.5787 27.646 50.1027 28.682C49.6267 29.69 49.1227 30.46 48.5907 30.992C48.0587 31.524 47.5267 31.86 46.9947 32C46.4627 32.168 45.9727 32.252 45.5247 32.252C44.6287 32.252 43.8727 32.084 43.2567 31.748C42.6407 31.384 42.1367 30.908 41.7447 30.32C41.3527 29.732 41.0587 29.046 40.8627 28.262C40.6947 27.478 40.6107 26.666 40.6107 25.826C40.6107 25.574 40.6107 25.112 40.6107 24.44C40.6387 23.74 40.6527 22.998 40.6527 22.214C40.6807 21.43 40.6947 20.688 40.6947 19.988C40.7227 19.288 40.7367 18.798 40.7367 18.518C40.7367 17.622 40.6667 16.88 40.5267 16.292C40.3867 15.704 40.1907 15.242 39.9387 14.906C39.6867 14.57 39.3927 14.332 39.0567 14.192C38.7487 14.052 38.4127 13.982 38.0487 13.982C37.1807 13.982 36.4247 14.332 35.7807 15.032C35.1647 15.732 34.6607 16.908 34.2687 18.56V32H30.0687V11H34.2687Z" fill="#BDBDBD"/>
<path d="M53.9162 11V25.28C53.9162 25.56 53.9302 25.91 53.9582 26.33C53.9862 26.75 54.0562 27.17 54.1682 27.59C54.3082 27.982 54.5042 28.332 54.7562 28.64C55.0082 28.92 55.3582 29.06 55.8062 29.06C57.1782 29.06 58.1862 27.534 58.8302 24.482H60.3842C60.0762 26.246 59.6842 27.646 59.2082 28.682C58.7322 29.69 58.2282 30.46 57.6962 30.992C57.1642 31.524 56.6182 31.86 56.0582 32C55.4982 32.168 54.9942 32.252 54.5462 32.252C53.5662 32.252 52.7682 32.07 52.1522 31.706C51.5362 31.314 51.0462 30.824 50.6822 30.236C50.3182 29.648 50.0662 28.99 49.9262 28.262C49.7862 27.534 49.7162 26.834 49.7162 26.162V11H53.9162ZM48.9602 4.952C48.9602 4.196 49.2262 3.538 49.7582 2.978C50.2902 2.418 50.9482 2.138 51.7322 2.138C52.4882 2.138 53.1462 2.418 53.7062 2.978C54.2662 3.538 54.5462 4.196 54.5462 4.952C54.5462 5.736 54.2662 6.394 53.7062 6.926C53.1462 7.458 52.4882 7.724 51.7322 7.724C50.9482 7.724 50.2902 7.458 49.7582 6.926C49.2262 6.394 48.9602 5.736 48.9602 4.952Z" fill="#BDBDBD"/>
<path d="M62.9796 2.6V17.846L70.2036 11H74.2776L67.2636 16.67H67.6836C68.9436 16.67 69.9376 16.88 70.6656 17.3C71.4216 17.72 71.9956 18.266 72.3876 18.938C72.8076 19.582 73.0736 20.296 73.1856 21.08C73.3256 21.836 73.3956 22.55 73.3956 23.222C73.3956 23.502 73.3816 23.824 73.3536 24.188C73.3536 24.524 73.3396 24.874 73.3116 25.238C73.3116 25.574 73.2976 25.896 73.2696 26.204C73.2696 26.484 73.2696 26.708 73.2696 26.876C73.2696 27.072 73.2836 27.296 73.3116 27.548C73.3396 27.8 73.4096 28.038 73.5216 28.262C73.6336 28.486 73.8016 28.682 74.0256 28.85C74.2496 28.99 74.5436 29.06 74.9076 29.06C75.6356 29.06 76.2516 28.696 76.7556 27.968C77.2876 27.24 77.7216 26.078 78.0576 24.482H79.6116C79.2756 26.302 78.8696 27.73 78.3936 28.766C77.9176 29.774 77.3996 30.544 76.8396 31.076C76.3076 31.608 75.7616 31.93 75.2016 32.042C74.6696 32.182 74.1936 32.252 73.7736 32.252C72.9336 32.252 72.2056 32.126 71.5896 31.874C71.0016 31.622 70.5116 31.286 70.1196 30.866C69.7556 30.418 69.4756 29.9 69.2796 29.312C69.1116 28.724 69.0276 28.108 69.0276 27.464C69.0276 27.352 69.0276 27.114 69.0276 26.75C69.0276 26.358 69.0276 25.952 69.0276 25.532C69.0556 25.112 69.0696 24.72 69.0696 24.356C69.0696 23.964 69.0696 23.698 69.0696 23.558C69.0696 22.102 68.8036 21.122 68.2716 20.618C67.7396 20.114 67.1236 19.862 66.4236 19.862C65.6956 19.862 65.0376 20.1 64.4496 20.576C63.8896 21.052 63.3996 21.892 62.9796 23.096V32H58.7796V3.188L62.9796 2.6Z" fill="#BDBDBD"/>
<path d="M91.1209 16.25C91.1209 18.21 90.309 19.848 88.685 21.164C87.089 22.48 84.863 23.292 82.007 23.6C82.119 24.72 82.3149 25.63 82.5949 26.33C82.9029 27.03 83.267 27.59 83.687 28.01C84.107 28.402 84.583 28.682 85.115 28.85C85.675 28.99 86.249 29.06 86.837 29.06C88.181 29.06 89.441 28.71 90.617 28.01C91.793 27.31 92.745 26.134 93.473 24.482H94.8169C94.4529 25.518 93.9489 26.512 93.3049 27.464C92.6609 28.388 91.9049 29.214 91.0369 29.942C90.1689 30.642 89.231 31.202 88.223 31.622C87.215 32.042 86.179 32.252 85.115 32.252C84.135 32.252 83.1829 32.084 82.2589 31.748C81.3629 31.412 80.565 30.866 79.865 30.11C79.165 29.326 78.591 28.318 78.143 27.086C77.723 25.854 77.5129 24.342 77.5129 22.55C77.5129 21.374 77.639 20.1 77.891 18.728C78.171 17.356 78.6189 16.082 79.2349 14.906C79.8789 13.73 80.705 12.75 81.713 11.966C82.749 11.182 84.023 10.79 85.535 10.79C86.235 10.79 86.9069 10.874 87.5509 11.042C88.2229 11.182 88.8249 11.462 89.3569 11.882C89.8889 12.274 90.309 12.82 90.617 13.52C90.953 14.22 91.1209 15.13 91.1209 16.25ZM81.965 21.962C83.953 21.654 85.521 20.954 86.669 19.862C87.845 18.77 88.433 17.426 88.433 15.83C88.433 14.766 88.2509 14.01 87.8869 13.562C87.5229 13.086 87.0049 12.848 86.3329 12.848C85.6049 12.848 84.9609 13.128 84.4009 13.688C83.8689 14.248 83.421 14.976 83.057 15.872C82.693 16.74 82.4129 17.72 82.2169 18.812C82.0489 19.876 81.965 20.926 81.965 21.962Z" fill="#BDBDBD"/>
<path d="M97.6378 11V14.528C97.9738 14.024 98.2958 13.548 98.6038 13.1C98.9398 12.652 99.3038 12.26 99.6958 11.924C100.088 11.588 100.522 11.322 100.998 11.126C101.474 10.902 102.006 10.79 102.594 10.79C103.546 10.79 104.246 11.042 104.694 11.546C105.142 12.022 105.366 12.61 105.366 13.31C105.366 13.73 105.296 14.08 105.156 14.36C105.016 14.64 104.848 14.864 104.652 15.032C104.456 15.2 104.246 15.326 104.022 15.41C103.798 15.466 103.602 15.494 103.434 15.494C103.182 15.494 102.972 15.438 102.804 15.326C102.664 15.214 102.51 15.102 102.342 14.99C102.202 14.85 102.034 14.724 101.838 14.612C101.642 14.5 101.39 14.444 101.082 14.444C100.438 14.444 99.8218 14.668 99.2338 15.116C98.6458 15.564 98.1138 16.04 97.6378 16.544V32H93.4378V11H97.6378Z" fill="#BDBDBD"/>
<path d="M134.757 4.868C133.861 4.868 132.937 4.798 131.985 4.658C131.061 4.49 130.123 4.308 129.171 4.112V13.73H135.387V16.208H129.171V32H124.635V3.356C124.495 3.328 124.355 3.314 124.215 3.314C124.103 3.314 123.977 3.314 123.837 3.314C123.109 3.314 122.423 3.412 121.779 3.608C121.135 3.804 120.575 4.14 120.099 4.616C119.651 5.092 119.287 5.736 119.007 6.548C118.755 7.332 118.629 8.326 118.629 9.53C118.629 11.042 118.811 12.316 119.175 13.352C119.567 14.36 120.015 15.074 120.519 15.494C117.187 15.494 115.521 13.66 115.521 9.992C115.521 8.648 115.745 7.402 116.193 6.254C116.641 5.106 117.341 4.112 118.293 3.272C119.245 2.404 120.449 1.732 121.905 1.256C123.389 0.752 125.153 0.5 127.197 0.5C127.897 0.5 128.555 0.528 129.171 0.584001C129.815 0.640001 130.431 0.696001 131.019 0.752002C131.607 0.808001 132.209 0.864001 132.825 0.920002C133.441 0.976001 134.099 1.004 134.799 1.004C135.499 1.004 136.157 0.976001 136.773 0.920002C137.389 0.836002 137.977 0.696001 138.537 0.5C138.481 1.48 138.341 2.264 138.117 2.852C137.921 3.412 137.655 3.846 137.319 4.154C136.983 4.434 136.591 4.63 136.143 4.742C135.723 4.826 135.261 4.868 134.757 4.868Z" fill="#BDBDBD"/>
<path d="M144.069 2.6V25.28C144.069 25.56 144.083 25.91 144.111 26.33C144.139 26.75 144.209 27.17 144.321 27.59C144.461 27.982 144.657 28.332 144.909 28.64C145.161 28.92 145.511 29.06 145.959 29.06C147.331 29.06 148.339 27.534 148.983 24.482H150.537C150.229 26.246 149.837 27.646 149.361 28.682C148.885 29.69 148.381 30.46 147.849 30.992C147.317 31.524 146.771 31.86 146.211 32C145.651 32.168 145.147 32.252 144.699 32.252C143.719 32.252 142.921 32.07 142.305 31.706C141.689 31.314 141.199 30.824 140.835 30.236C140.471 29.648 140.219 28.99 140.079 28.262C139.939 27.534 139.869 26.834 139.869 26.162V3.188L144.069 2.6Z" fill="#BDBDBD"/>
<path d="M156.577 10.79C157.669 10.79 158.607 10.958 159.391 11.294C160.175 11.63 160.819 12.106 161.323 12.722C161.827 13.31 162.219 14.01 162.499 14.822C162.807 15.634 163.031 16.502 163.171 17.426H163.423C164.599 17.426 165.677 17.188 166.657 16.712C167.637 16.236 168.477 15.634 169.177 14.906L169.807 16.04C169.247 16.936 168.351 17.678 167.119 18.266C165.915 18.854 164.669 19.26 163.381 19.484C163.381 19.764 163.381 20.044 163.381 20.324C163.409 20.604 163.423 20.898 163.423 21.206C163.423 24.65 162.793 27.352 161.533 29.312C160.273 31.272 158.509 32.252 156.241 32.252C155.317 32.252 154.379 32.084 153.427 31.748C152.503 31.412 151.663 30.852 150.907 30.068C150.151 29.284 149.535 28.276 149.059 27.044C148.611 25.812 148.387 24.286 148.387 22.466C148.387 21.234 148.513 19.932 148.765 18.56C149.045 17.188 149.493 15.928 150.109 14.78C150.753 13.632 151.593 12.68 152.629 11.924C153.693 11.168 155.009 10.79 156.577 10.79ZM156.997 29.06C158.481 29.06 159.573 28.332 160.273 26.876C160.973 25.392 161.323 23.306 161.323 20.618C161.323 20.45 161.323 20.282 161.323 20.114C161.323 19.946 161.309 19.778 161.281 19.61C160.469 19.554 159.881 19.372 159.517 19.064C159.181 18.756 159.013 18.238 159.013 17.51C159.013 16.866 159.153 16.418 159.433 16.166C159.713 15.886 160.133 15.732 160.693 15.704C160.357 14.724 159.923 14.052 159.391 13.688C158.887 13.296 158.313 13.1 157.669 13.1C156.801 13.1 156.059 13.394 155.443 13.982C154.855 14.542 154.365 15.27 153.973 16.166C153.609 17.062 153.343 18.056 153.175 19.148C153.007 20.212 152.923 21.262 152.923 22.298C152.923 23.67 153.049 24.79 153.301 25.658C153.553 26.526 153.875 27.212 154.267 27.716C154.659 28.22 155.093 28.57 155.569 28.766C156.045 28.962 156.521 29.06 156.997 29.06Z" fill="#BDBDBD"/>
<path d="M170.687 11V14.528C171.023 14.024 171.345 13.548 171.653 13.1C171.989 12.652 172.353 12.26 172.745 11.924C173.137 11.588 173.571 11.322 174.047 11.126C174.523 10.902 175.055 10.79 175.643 10.79C176.595 10.79 177.295 11.042 177.743 11.546C178.191 12.022 178.415 12.61 178.415 13.31C178.415 13.73 178.345 14.08 178.205 14.36C178.065 14.64 177.897 14.864 177.701 15.032C177.505 15.2 177.295 15.326 177.071 15.41C176.847 15.466 176.651 15.494 176.483 15.494C176.231 15.494 176.021 15.438 175.853 15.326C175.713 15.214 175.559 15.102 175.391 14.99C175.251 14.85 175.083 14.724 174.887 14.612C174.691 14.5 174.439 14.444 174.131 14.444C173.487 14.444 172.871 14.668 172.283 15.116C171.695 15.564 171.163 16.04 170.687 16.544V32H166.487V11H170.687Z" fill="#BDBDBD"/>
<path d="M193.742 16.25C193.742 18.21 192.93 19.848 191.306 21.164C189.71 22.48 187.484 23.292 184.628 23.6C184.74 24.72 184.936 25.63 185.216 26.33C185.524 27.03 185.888 27.59 186.308 28.01C186.728 28.402 187.204 28.682 187.736 28.85C188.296 28.99 188.87 29.06 189.458 29.06C190.802 29.06 192.062 28.71 193.238 28.01C194.414 27.31 195.366 26.134 196.094 24.482H197.438C197.074 25.518 196.57 26.512 195.926 27.464C195.282 28.388 194.526 29.214 193.658 29.942C192.79 30.642 191.852 31.202 190.844 31.622C189.836 32.042 188.8 32.252 187.736 32.252C186.756 32.252 185.804 32.084 184.88 31.748C183.984 31.412 183.186 30.866 182.486 30.11C181.786 29.326 181.212 28.318 180.764 27.086C180.344 25.854 180.134 24.342 180.134 22.55C180.134 21.374 180.26 20.1 180.512 18.728C180.792 17.356 181.24 16.082 181.856 14.906C182.5 13.73 183.326 12.75 184.334 11.966C185.37 11.182 186.644 10.79 188.156 10.79C188.856 10.79 189.528 10.874 190.172 11.042C190.844 11.182 191.446 11.462 191.978 11.882C192.51 12.274 192.93 12.82 193.238 13.52C193.574 14.22 193.742 15.13 193.742 16.25ZM184.586 21.962C186.574 21.654 188.142 20.954 189.29 19.862C190.466 18.77 191.054 17.426 191.054 15.83C191.054 14.766 190.872 14.01 190.508 13.562C190.144 13.086 189.626 12.848 188.954 12.848C188.226 12.848 187.582 13.128 187.022 13.688C186.49 14.248 186.042 14.976 185.678 15.872C185.314 16.74 185.034 17.72 184.838 18.812C184.67 19.876 184.586 20.926 184.586 21.962Z" fill="#BDBDBD"/>
<path d="M200.259 11V14.192C200.679 13.436 201.099 12.834 201.519 12.386C201.967 11.91 202.415 11.56 202.863 11.336C203.311 11.112 203.731 10.972 204.123 10.916C204.543 10.832 204.935 10.79 205.299 10.79C206.559 10.79 207.567 11.028 208.323 11.504C209.107 11.98 209.695 12.596 210.087 13.352C210.479 14.08 210.731 14.892 210.843 15.788C210.983 16.656 211.053 17.496 211.053 18.308C211.053 18.812 211.039 19.372 211.011 19.988C210.983 20.576 210.955 21.192 210.927 21.836C210.899 22.452 210.871 23.082 210.843 23.726C210.815 24.342 210.801 24.916 210.801 25.448C210.801 25.672 210.815 25.994 210.843 26.414C210.871 26.806 210.941 27.198 211.053 27.59C211.165 27.982 211.347 28.332 211.599 28.64C211.851 28.92 212.215 29.06 212.691 29.06C213.335 29.06 213.909 28.696 214.413 27.968C214.945 27.24 215.379 26.078 215.715 24.482H217.269C216.961 26.246 216.569 27.646 216.093 28.682C215.617 29.69 215.113 30.46 214.581 30.992C214.049 31.524 213.517 31.86 212.985 32C212.453 32.168 211.963 32.252 211.515 32.252C210.619 32.252 209.863 32.084 209.247 31.748C208.631 31.384 208.127 30.908 207.735 30.32C207.343 29.732 207.049 29.046 206.853 28.262C206.685 27.478 206.601 26.666 206.601 25.826C206.601 25.574 206.601 25.112 206.601 24.44C206.629 23.74 206.643 22.998 206.643 22.214C206.671 21.43 206.685 20.688 206.685 19.988C206.713 19.288 206.727 18.798 206.727 18.518C206.727 17.622 206.657 16.88 206.517 16.292C206.377 15.704 206.181 15.242 205.929 14.906C205.677 14.57 205.383 14.332 205.047 14.192C204.739 14.052 204.403 13.982 204.039 13.982C203.171 13.982 202.415 14.332 201.771 15.032C201.155 15.732 200.651 16.908 200.259 18.56V32H196.059V11H200.259Z" fill="#BDBDBD"/>
<path d="M225.198 17.426C225.422 17.23 225.59 16.922 225.702 16.502C225.842 16.054 225.912 15.634 225.912 15.242C225.912 14.598 225.702 14.066 225.282 13.646C224.89 13.226 224.33 13.016 223.602 13.016C222.846 13.016 222.216 13.296 221.712 13.856C221.208 14.416 220.802 15.13 220.494 15.998C220.186 16.838 219.962 17.79 219.822 18.854C219.71 19.89 219.654 20.912 219.654 21.92C219.654 23.404 219.78 24.608 220.032 25.532C220.312 26.456 220.676 27.184 221.124 27.716C221.572 28.22 222.09 28.57 222.678 28.766C223.294 28.962 223.938 29.06 224.61 29.06C226.094 29.06 227.34 28.696 228.348 27.968C229.384 27.212 230.266 26.05 230.994 24.482H232.422C232.086 25.518 231.61 26.512 230.994 27.464C230.378 28.388 229.664 29.214 228.852 29.942C228.04 30.642 227.158 31.202 226.206 31.622C225.254 32.042 224.26 32.252 223.224 32.252C222.244 32.252 221.278 32.084 220.326 31.748C219.374 31.412 218.52 30.866 217.764 30.11C217.008 29.326 216.392 28.318 215.916 27.086C215.44 25.826 215.202 24.286 215.202 22.466C215.202 21.29 215.3 20.03 215.496 18.686C215.72 17.314 216.112 16.054 216.672 14.906C217.26 13.73 218.058 12.75 219.066 11.966C220.074 11.182 221.376 10.79 222.972 10.79C224.736 10.79 226.08 11.224 227.004 12.092C227.928 12.932 228.39 14.178 228.39 15.83C228.39 16.53 228.25 17.118 227.97 17.594C227.718 18.07 227.312 18.308 226.752 18.308C226.136 18.308 225.618 18.014 225.198 17.426Z" fill="#BDBDBD"/>
<path d="M235.205 11V25.28C235.205 25.56 235.219 25.91 235.247 26.33C235.275 26.75 235.345 27.17 235.457 27.59C235.597 27.982 235.793 28.332 236.045 28.64C236.297 28.92 236.647 29.06 237.095 29.06C238.467 29.06 239.475 27.534 240.119 24.482H241.673C241.365 26.246 240.973 27.646 240.497 28.682C240.021 29.69 239.517 30.46 238.985 30.992C238.453 31.524 237.907 31.86 237.347 32C236.787 32.168 236.283 32.252 235.835 32.252C234.855 32.252 234.057 32.07 233.441 31.706C232.825 31.314 232.335 30.824 231.971 30.236C231.607 29.648 231.355 28.99 231.215 28.262C231.075 27.534 231.005 26.834 231.005 26.162V11H235.205ZM230.249 4.952C230.249 4.196 230.515 3.538 231.047 2.978C231.579 2.418 232.237 2.138 233.021 2.138C233.777 2.138 234.435 2.418 234.995 2.978C235.555 3.538 235.835 4.196 235.835 4.952C235.835 5.736 235.555 6.394 234.995 6.926C234.435 7.458 233.777 7.724 233.021 7.724C232.237 7.724 231.579 7.458 231.047 6.926C230.515 6.394 230.249 5.736 230.249 4.952Z" fill="#BDBDBD"/>
<path d="M247.755 10.79C248.735 10.79 249.589 10.93 250.317 11.21C251.045 11.49 251.661 11.882 252.165 12.386C252.697 12.862 253.117 13.45 253.425 14.15C253.761 14.822 254.013 15.55 254.181 16.334C254.965 16.334 255.525 16.096 255.861 15.62C256.197 15.116 256.435 14.654 256.575 14.234H257.793C257.569 15.158 257.191 16.11 256.659 17.09C256.155 18.042 255.441 18.756 254.517 19.232C254.573 19.568 254.601 19.904 254.601 20.24C254.601 20.548 254.601 20.87 254.601 21.206C254.601 24.65 253.971 27.352 252.711 29.312C251.451 31.272 249.687 32.252 247.419 32.252C246.495 32.252 245.557 32.084 244.605 31.748C243.681 31.412 242.841 30.852 242.085 30.068C241.329 29.284 240.713 28.276 240.237 27.044C239.789 25.812 239.565 24.286 239.565 22.466C239.565 21.234 239.691 19.932 239.943 18.56C240.223 17.188 240.671 15.928 241.287 14.78C241.931 13.632 242.771 12.68 243.807 11.924C244.871 11.168 246.187 10.79 247.755 10.79ZM248.175 29.06C249.659 29.06 250.751 28.332 251.451 26.876C252.151 25.392 252.501 23.306 252.501 20.618C252.501 20.478 252.487 20.338 252.459 20.198C252.459 20.03 252.459 19.876 252.459 19.736C251.675 19.736 251.101 19.526 250.737 19.106C250.373 18.658 250.191 18.028 250.191 17.216C250.191 16.656 250.331 16.222 250.611 15.914C250.891 15.578 251.269 15.382 251.745 15.326C251.409 14.514 250.989 13.94 250.485 13.604C249.981 13.268 249.435 13.1 248.847 13.1C247.979 13.1 247.237 13.394 246.621 13.982C246.033 14.542 245.543 15.27 245.151 16.166C244.787 17.062 244.521 18.056 244.353 19.148C244.185 20.212 244.101 21.262 244.101 22.298C244.101 23.67 244.227 24.79 244.479 25.658C244.731 26.526 245.053 27.212 245.445 27.716C245.837 28.22 246.271 28.57 246.747 28.766C247.223 28.962 247.699 29.06 248.175 29.06Z" fill="#BDBDBD"/>
</svg>
