<svg width="322" height="40" viewBox="0 0 322 40" fill="none" xmlns="http://www.w3.org/2000/svg">
<path d="M78.1959 0.630002V30.66C79.0919 30.856 79.9599 31.164 80.7999 31.584C81.6679 32.004 82.5499 32.424 83.4459 32.844C84.3419 33.264 85.2799 33.628 86.2599 33.936C87.2679 34.244 88.3599 34.398 89.5359 34.398C90.5159 34.398 91.5939 34.118 92.7699 33.558C92.8539 33.95 92.8959 34.328 92.8959 34.692C92.8959 35.28 92.7839 35.826 92.5599 36.33C92.3639 36.862 92.0559 37.324 91.6359 37.716C91.2439 38.108 90.7539 38.416 90.1659 38.64C89.6059 38.892 88.9759 39.018 88.2759 39.018C87.1839 39.018 86.1059 38.668 85.0419 37.968C83.9779 37.296 82.8999 36.54 81.8079 35.7C80.7159 34.888 79.5679 34.132 78.3639 33.432C77.1879 32.76 75.9279 32.424 74.5839 32.424C74.4159 32.424 74.2479 32.424 74.0799 32.424C73.9399 32.424 73.7859 32.438 73.6179 32.466V2.898C71.7419 3.43 70.2579 4.34 69.1659 5.628C68.0739 6.916 67.5279 8.526 67.5279 10.458C67.5279 11.214 67.5839 11.858 67.6959 12.39C67.8079 12.894 67.9479 13.342 68.1159 13.734C68.2839 14.098 68.4799 14.42 68.7039 14.7C68.9559 14.952 69.2079 15.19 69.4599 15.414C67.7799 15.414 66.4499 15.036 65.4699 14.28C64.4899 13.496 63.9999 12.18 63.9999 10.332C63.9999 8.988 64.3499 7.728 65.0499 6.552C65.7499 5.348 66.6739 4.298 67.8219 3.402C68.9979 2.478 70.3279 1.75 71.8119 1.218C73.3239 0.686002 74.8779 0.420002 76.4739 0.420002C76.7819 0.420002 77.0759 0.434002 77.3559 0.462002C77.6639 0.462002 77.9579 0.476001 78.2379 0.504001L78.1959 0.630002Z" fill="url(#paint0_linear_37_5)"/>
<path d="M88.4492 10.5V24.78C88.4492 25.06 88.4632 25.41 88.4912 25.83C88.5192 26.25 88.5892 26.67 88.7012 27.09C88.8412 27.482 89.0372 27.832 89.2892 28.14C89.5412 28.42 89.8912 28.56 90.3392 28.56C91.7112 28.56 92.7192 27.034 93.3632 23.982H94.9172C94.6092 25.746 94.2172 27.146 93.7412 28.182C93.2652 29.19 92.7612 29.96 92.2292 30.492C91.6972 31.024 91.1512 31.36 90.5912 31.5C90.0312 31.668 89.5272 31.752 89.0792 31.752C88.0992 31.752 87.3012 31.57 86.6852 31.206C86.0692 30.814 85.5792 30.324 85.2152 29.736C84.8512 29.148 84.5992 28.49 84.4592 27.762C84.3192 27.034 84.2492 26.334 84.2492 25.662V10.5H88.4492ZM83.4932 4.452C83.4932 3.696 83.7592 3.038 84.2912 2.478C84.8232 1.918 85.4812 1.638 86.2652 1.638C87.0212 1.638 87.6792 1.918 88.2392 2.478C88.7992 3.038 89.0792 3.696 89.0792 4.452C89.0792 5.236 88.7992 5.894 88.2392 6.426C87.6792 6.958 87.0212 7.224 86.2652 7.224C85.4812 7.224 84.8232 6.958 84.2912 6.426C83.7592 5.894 83.4932 5.236 83.4932 4.452Z" fill="url(#paint1_linear_37_5)"/>
<path d="M97.5127 10.5V13.692C97.9327 12.936 98.3527 12.334 98.7727 11.886C99.2207 11.41 99.6687 11.06 100.117 10.836C100.565 10.612 100.985 10.472 101.377 10.416C101.797 10.332 102.189 10.29 102.553 10.29C103.813 10.29 104.821 10.528 105.577 11.004C106.361 11.48 106.949 12.096 107.341 12.852C107.733 13.58 107.985 14.392 108.097 15.288C108.237 16.156 108.307 16.996 108.307 17.808C108.307 18.312 108.293 18.872 108.265 19.488C108.237 20.076 108.209 20.692 108.181 21.336C108.153 21.952 108.125 22.582 108.097 23.226C108.069 23.842 108.055 24.416 108.055 24.948C108.055 25.172 108.069 25.494 108.097 25.914C108.125 26.306 108.195 26.698 108.307 27.09C108.419 27.482 108.601 27.832 108.853 28.14C109.105 28.42 109.469 28.56 109.945 28.56C110.589 28.56 111.163 28.196 111.667 27.468C112.199 26.74 112.633 25.578 112.969 23.982H114.523C114.215 25.746 113.823 27.146 113.347 28.182C112.871 29.19 112.367 29.96 111.835 30.492C111.303 31.024 110.771 31.36 110.239 31.5C109.707 31.668 109.217 31.752 108.769 31.752C107.873 31.752 107.117 31.584 106.501 31.248C105.885 30.884 105.381 30.408 104.989 29.82C104.597 29.232 104.303 28.546 104.107 27.762C103.939 26.978 103.855 26.166 103.855 25.326C103.855 25.074 103.855 24.612 103.855 23.94C103.883 23.24 103.897 22.498 103.897 21.714C103.925 20.93 103.939 20.188 103.939 19.488C103.967 18.788 103.981 18.298 103.981 18.018C103.981 17.122 103.911 16.38 103.771 15.792C103.631 15.204 103.435 14.742 103.183 14.406C102.931 14.07 102.637 13.832 102.301 13.692C101.993 13.552 101.657 13.482 101.293 13.482C100.425 13.482 99.6687 13.832 99.0247 14.532C98.4087 15.232 97.9047 16.408 97.5127 18.06V31.5H93.3127V10.5H97.5127Z" fill="url(#paint2_linear_37_5)"/>
<path d="M117.16 10.5V24.78C117.16 25.06 117.174 25.41 117.202 25.83C117.23 26.25 117.3 26.67 117.412 27.09C117.552 27.482 117.748 27.832 118 28.14C118.252 28.42 118.602 28.56 119.05 28.56C120.422 28.56 121.43 27.034 122.074 23.982H123.628C123.32 25.746 122.928 27.146 122.452 28.182C121.976 29.19 121.472 29.96 120.94 30.492C120.408 31.024 119.862 31.36 119.302 31.5C118.742 31.668 118.238 31.752 117.79 31.752C116.81 31.752 116.012 31.57 115.396 31.206C114.78 30.814 114.29 30.324 113.926 29.736C113.562 29.148 113.31 28.49 113.17 27.762C113.03 27.034 112.96 26.334 112.96 25.662V10.5H117.16ZM112.204 4.452C112.204 3.696 112.47 3.038 113.002 2.478C113.534 1.918 114.192 1.638 114.976 1.638C115.732 1.638 116.39 1.918 116.95 2.478C117.51 3.038 117.79 3.696 117.79 4.452C117.79 5.236 117.51 5.894 116.95 6.426C116.39 6.958 115.732 7.224 114.976 7.224C114.192 7.224 113.534 6.958 113.002 6.426C112.47 5.894 112.204 5.236 112.204 4.452Z" fill="url(#paint3_linear_37_5)"/>
<path d="M126.224 2.1V17.346L133.448 10.5H137.522L130.508 16.17H130.928C132.188 16.17 133.182 16.38 133.91 16.8C134.666 17.22 135.24 17.766 135.632 18.438C136.052 19.082 136.318 19.796 136.43 20.58C136.57 21.336 136.64 22.05 136.64 22.722C136.64 23.002 136.626 23.324 136.598 23.688C136.598 24.024 136.584 24.374 136.556 24.738C136.556 25.074 136.542 25.396 136.514 25.704C136.514 25.984 136.514 26.208 136.514 26.376C136.514 26.572 136.528 26.796 136.556 27.048C136.584 27.3 136.654 27.538 136.766 27.762C136.878 27.986 137.046 28.182 137.27 28.35C137.494 28.49 137.788 28.56 138.152 28.56C138.88 28.56 139.496 28.196 140 27.468C140.532 26.74 140.966 25.578 141.302 23.982H142.856C142.52 25.802 142.114 27.23 141.638 28.266C141.162 29.274 140.644 30.044 140.084 30.576C139.552 31.108 139.006 31.43 138.446 31.542C137.914 31.682 137.438 31.752 137.018 31.752C136.178 31.752 135.45 31.626 134.834 31.374C134.246 31.122 133.756 30.786 133.364 30.366C133 29.918 132.72 29.4 132.524 28.812C132.356 28.224 132.272 27.608 132.272 26.964C132.272 26.852 132.272 26.614 132.272 26.25C132.272 25.858 132.272 25.452 132.272 25.032C132.3 24.612 132.314 24.22 132.314 23.856C132.314 23.464 132.314 23.198 132.314 23.058C132.314 21.602 132.048 20.622 131.516 20.118C130.984 19.614 130.368 19.362 129.668 19.362C128.94 19.362 128.282 19.6 127.694 20.076C127.134 20.552 126.644 21.392 126.224 22.596V31.5H122.024V2.688L126.224 2.1Z" fill="url(#paint4_linear_37_5)"/>
<path d="M154.365 15.75C154.365 17.71 153.553 19.348 151.929 20.664C150.333 21.98 148.107 22.792 145.251 23.1C145.363 24.22 145.559 25.13 145.839 25.83C146.147 26.53 146.511 27.09 146.931 27.51C147.351 27.902 147.827 28.182 148.359 28.35C148.919 28.49 149.493 28.56 150.081 28.56C151.425 28.56 152.685 28.21 153.861 27.51C155.037 26.81 155.989 25.634 156.717 23.982H158.061C157.697 25.018 157.193 26.012 156.549 26.964C155.905 27.888 155.149 28.714 154.281 29.442C153.413 30.142 152.475 30.702 151.467 31.122C150.459 31.542 149.423 31.752 148.359 31.752C147.379 31.752 146.427 31.584 145.503 31.248C144.607 30.912 143.809 30.366 143.109 29.61C142.409 28.826 141.835 27.818 141.387 26.586C140.967 25.354 140.757 23.842 140.757 22.05C140.757 20.874 140.883 19.6 141.135 18.228C141.415 16.856 141.863 15.582 142.479 14.406C143.123 13.23 143.949 12.25 144.957 11.466C145.993 10.682 147.267 10.29 148.779 10.29C149.479 10.29 150.151 10.374 150.795 10.542C151.467 10.682 152.069 10.962 152.601 11.382C153.133 11.774 153.553 12.32 153.861 13.02C154.197 13.72 154.365 14.63 154.365 15.75ZM145.209 21.462C147.197 21.154 148.765 20.454 149.913 19.362C151.089 18.27 151.677 16.926 151.677 15.33C151.677 14.266 151.495 13.51 151.131 13.062C150.767 12.586 150.249 12.348 149.577 12.348C148.849 12.348 148.205 12.628 147.645 13.188C147.113 13.748 146.665 14.476 146.301 15.372C145.937 16.24 145.657 17.22 145.461 18.312C145.293 19.376 145.209 20.426 145.209 21.462Z" fill="url(#paint5_linear_37_5)"/>
<path d="M160.882 10.5V14.028C161.218 13.524 161.54 13.048 161.848 12.6C162.184 12.152 162.548 11.76 162.94 11.424C163.332 11.088 163.766 10.822 164.242 10.626C164.718 10.402 165.25 10.29 165.838 10.29C166.79 10.29 167.49 10.542 167.938 11.046C168.386 11.522 168.61 12.11 168.61 12.81C168.61 13.23 168.54 13.58 168.4 13.86C168.26 14.14 168.092 14.364 167.896 14.532C167.7 14.7 167.49 14.826 167.266 14.91C167.042 14.966 166.846 14.994 166.678 14.994C166.426 14.994 166.216 14.938 166.048 14.826C165.908 14.714 165.754 14.602 165.586 14.49C165.446 14.35 165.278 14.224 165.082 14.112C164.886 14 164.634 13.944 164.326 13.944C163.682 13.944 163.066 14.168 162.478 14.616C161.89 15.064 161.358 15.54 160.882 16.044V31.5H156.682V10.5H160.882Z" fill="url(#paint6_linear_37_5)"/>
<path d="M198.001 4.368C197.105 4.368 196.181 4.298 195.229 4.158C194.305 3.99 193.367 3.808 192.415 3.612V13.23H198.631V15.708H192.415V31.5H187.879V2.856C187.739 2.828 187.599 2.814 187.459 2.814C187.347 2.814 187.221 2.814 187.081 2.814C186.353 2.814 185.667 2.912 185.023 3.108C184.379 3.304 183.819 3.64 183.343 4.116C182.895 4.592 182.531 5.236 182.251 6.048C181.999 6.832 181.873 7.826 181.873 9.03C181.873 10.542 182.055 11.816 182.419 12.852C182.811 13.86 183.259 14.574 183.763 14.994C180.431 14.994 178.765 13.16 178.765 9.492C178.765 8.148 178.989 6.902 179.437 5.754C179.885 4.606 180.585 3.612 181.537 2.772C182.489 1.904 183.693 1.232 185.149 0.756C186.633 0.252 188.397 0 190.441 0C191.141 0 191.799 0.0280005 192.415 0.0840014C193.059 0.140001 193.675 0.196001 194.263 0.252002C194.851 0.308001 195.453 0.364001 196.069 0.420002C196.685 0.476001 197.343 0.504001 198.043 0.504001C198.743 0.504001 199.401 0.476001 200.017 0.420002C200.633 0.336002 201.221 0.196001 201.781 0C201.725 0.980001 201.585 1.764 201.361 2.352C201.165 2.912 200.899 3.346 200.563 3.654C200.227 3.934 199.835 4.13 199.387 4.242C198.967 4.326 198.505 4.368 198.001 4.368Z" fill="url(#paint7_linear_37_5)"/>
<path d="M207.312 2.1V24.78C207.312 25.06 207.326 25.41 207.354 25.83C207.382 26.25 207.452 26.67 207.564 27.09C207.704 27.482 207.9 27.832 208.152 28.14C208.404 28.42 208.754 28.56 209.202 28.56C210.574 28.56 211.582 27.034 212.226 23.982H213.78C213.472 25.746 213.08 27.146 212.604 28.182C212.128 29.19 211.624 29.96 211.092 30.492C210.56 31.024 210.014 31.36 209.454 31.5C208.894 31.668 208.39 31.752 207.942 31.752C206.962 31.752 206.164 31.57 205.548 31.206C204.932 30.814 204.442 30.324 204.078 29.736C203.714 29.148 203.462 28.49 203.322 27.762C203.182 27.034 203.112 26.334 203.112 25.662V2.688L207.312 2.1Z" fill="url(#paint8_linear_37_5)"/>
<path d="M219.821 10.29C220.913 10.29 221.851 10.458 222.635 10.794C223.419 11.13 224.063 11.606 224.567 12.222C225.071 12.81 225.463 13.51 225.743 14.322C226.051 15.134 226.275 16.002 226.415 16.926H226.667C227.843 16.926 228.921 16.688 229.901 16.212C230.881 15.736 231.721 15.134 232.421 14.406L233.051 15.54C232.491 16.436 231.595 17.178 230.363 17.766C229.159 18.354 227.913 18.76 226.625 18.984C226.625 19.264 226.625 19.544 226.625 19.824C226.653 20.104 226.667 20.398 226.667 20.706C226.667 24.15 226.037 26.852 224.777 28.812C223.517 30.772 221.753 31.752 219.485 31.752C218.561 31.752 217.623 31.584 216.671 31.248C215.747 30.912 214.907 30.352 214.151 29.568C213.395 28.784 212.779 27.776 212.303 26.544C211.855 25.312 211.631 23.786 211.631 21.966C211.631 20.734 211.757 19.432 212.009 18.06C212.289 16.688 212.737 15.428 213.353 14.28C213.997 13.132 214.837 12.18 215.873 11.424C216.937 10.668 218.253 10.29 219.821 10.29ZM220.241 28.56C221.725 28.56 222.817 27.832 223.517 26.376C224.217 24.892 224.567 22.806 224.567 20.118C224.567 19.95 224.567 19.782 224.567 19.614C224.567 19.446 224.553 19.278 224.525 19.11C223.713 19.054 223.125 18.872 222.761 18.564C222.425 18.256 222.257 17.738 222.257 17.01C222.257 16.366 222.397 15.918 222.677 15.666C222.957 15.386 223.377 15.232 223.937 15.204C223.601 14.224 223.167 13.552 222.635 13.188C222.131 12.796 221.557 12.6 220.913 12.6C220.045 12.6 219.303 12.894 218.687 13.482C218.099 14.042 217.609 14.77 217.217 15.666C216.853 16.562 216.587 17.556 216.419 18.648C216.251 19.712 216.167 20.762 216.167 21.798C216.167 23.17 216.293 24.29 216.545 25.158C216.797 26.026 217.119 26.712 217.511 27.216C217.903 27.72 218.337 28.07 218.813 28.266C219.289 28.462 219.765 28.56 220.241 28.56Z" fill="url(#paint9_linear_37_5)"/>
<path d="M233.931 10.5V14.028C234.267 13.524 234.589 13.048 234.897 12.6C235.233 12.152 235.597 11.76 235.989 11.424C236.381 11.088 236.815 10.822 237.291 10.626C237.767 10.402 238.299 10.29 238.887 10.29C239.839 10.29 240.539 10.542 240.987 11.046C241.435 11.522 241.659 12.11 241.659 12.81C241.659 13.23 241.589 13.58 241.449 13.86C241.309 14.14 241.141 14.364 240.945 14.532C240.749 14.7 240.539 14.826 240.315 14.91C240.091 14.966 239.895 14.994 239.727 14.994C239.475 14.994 239.265 14.938 239.097 14.826C238.957 14.714 238.803 14.602 238.635 14.49C238.495 14.35 238.327 14.224 238.131 14.112C237.935 14 237.683 13.944 237.375 13.944C236.731 13.944 236.115 14.168 235.527 14.616C234.939 15.064 234.407 15.54 233.931 16.044V31.5H229.731V10.5H233.931Z" fill="url(#paint10_linear_37_5)"/>
<path d="M256.986 15.75C256.986 17.71 256.174 19.348 254.55 20.664C252.954 21.98 250.728 22.792 247.872 23.1C247.984 24.22 248.18 25.13 248.46 25.83C248.768 26.53 249.132 27.09 249.552 27.51C249.972 27.902 250.448 28.182 250.98 28.35C251.54 28.49 252.114 28.56 252.702 28.56C254.046 28.56 255.306 28.21 256.482 27.51C257.658 26.81 258.61 25.634 259.338 23.982H260.682C260.318 25.018 259.814 26.012 259.17 26.964C258.526 27.888 257.77 28.714 256.902 29.442C256.034 30.142 255.096 30.702 254.088 31.122C253.08 31.542 252.044 31.752 250.98 31.752C250 31.752 249.048 31.584 248.124 31.248C247.228 30.912 246.43 30.366 245.73 29.61C245.03 28.826 244.456 27.818 244.008 26.586C243.588 25.354 243.378 23.842 243.378 22.05C243.378 20.874 243.504 19.6 243.756 18.228C244.036 16.856 244.484 15.582 245.1 14.406C245.744 13.23 246.57 12.25 247.578 11.466C248.614 10.682 249.888 10.29 251.4 10.29C252.1 10.29 252.772 10.374 253.416 10.542C254.088 10.682 254.69 10.962 255.222 11.382C255.754 11.774 256.174 12.32 256.482 13.02C256.818 13.72 256.986 14.63 256.986 15.75ZM247.83 21.462C249.818 21.154 251.386 20.454 252.534 19.362C253.71 18.27 254.298 16.926 254.298 15.33C254.298 14.266 254.116 13.51 253.752 13.062C253.388 12.586 252.87 12.348 252.198 12.348C251.47 12.348 250.826 12.628 250.266 13.188C249.734 13.748 249.286 14.476 248.922 15.372C248.558 16.24 248.278 17.22 248.082 18.312C247.914 19.376 247.83 20.426 247.83 21.462Z" fill="url(#paint11_linear_37_5)"/>
<path d="M263.503 10.5V13.692C263.923 12.936 264.343 12.334 264.763 11.886C265.211 11.41 265.659 11.06 266.107 10.836C266.555 10.612 266.975 10.472 267.367 10.416C267.787 10.332 268.179 10.29 268.543 10.29C269.803 10.29 270.811 10.528 271.567 11.004C272.351 11.48 272.939 12.096 273.331 12.852C273.723 13.58 273.975 14.392 274.087 15.288C274.227 16.156 274.297 16.996 274.297 17.808C274.297 18.312 274.283 18.872 274.255 19.488C274.227 20.076 274.199 20.692 274.171 21.336C274.143 21.952 274.115 22.582 274.087 23.226C274.059 23.842 274.045 24.416 274.045 24.948C274.045 25.172 274.059 25.494 274.087 25.914C274.115 26.306 274.185 26.698 274.297 27.09C274.409 27.482 274.591 27.832 274.843 28.14C275.095 28.42 275.459 28.56 275.935 28.56C276.579 28.56 277.153 28.196 277.657 27.468C278.189 26.74 278.623 25.578 278.959 23.982H280.513C280.205 25.746 279.813 27.146 279.337 28.182C278.861 29.19 278.357 29.96 277.825 30.492C277.293 31.024 276.761 31.36 276.229 31.5C275.697 31.668 275.207 31.752 274.759 31.752C273.863 31.752 273.107 31.584 272.491 31.248C271.875 30.884 271.371 30.408 270.979 29.82C270.587 29.232 270.293 28.546 270.097 27.762C269.929 26.978 269.845 26.166 269.845 25.326C269.845 25.074 269.845 24.612 269.845 23.94C269.873 23.24 269.887 22.498 269.887 21.714C269.915 20.93 269.929 20.188 269.929 19.488C269.957 18.788 269.971 18.298 269.971 18.018C269.971 17.122 269.901 16.38 269.761 15.792C269.621 15.204 269.425 14.742 269.173 14.406C268.921 14.07 268.627 13.832 268.291 13.692C267.983 13.552 267.647 13.482 267.283 13.482C266.415 13.482 265.659 13.832 265.015 14.532C264.399 15.232 263.895 16.408 263.503 18.06V31.5H259.303V10.5H263.503Z" fill="url(#paint12_linear_37_5)"/>
<path d="M288.442 16.926C288.666 16.73 288.834 16.422 288.946 16.002C289.086 15.554 289.156 15.134 289.156 14.742C289.156 14.098 288.946 13.566 288.526 13.146C288.134 12.726 287.574 12.516 286.846 12.516C286.09 12.516 285.46 12.796 284.956 13.356C284.452 13.916 284.046 14.63 283.738 15.498C283.43 16.338 283.206 17.29 283.066 18.354C282.954 19.39 282.898 20.412 282.898 21.42C282.898 22.904 283.024 24.108 283.276 25.032C283.556 25.956 283.92 26.684 284.368 27.216C284.816 27.72 285.334 28.07 285.922 28.266C286.538 28.462 287.182 28.56 287.854 28.56C289.338 28.56 290.584 28.196 291.592 27.468C292.628 26.712 293.51 25.55 294.238 23.982H295.666C295.33 25.018 294.854 26.012 294.238 26.964C293.622 27.888 292.908 28.714 292.096 29.442C291.284 30.142 290.402 30.702 289.45 31.122C288.498 31.542 287.504 31.752 286.468 31.752C285.488 31.752 284.522 31.584 283.57 31.248C282.618 30.912 281.764 30.366 281.008 29.61C280.252 28.826 279.636 27.818 279.16 26.586C278.684 25.326 278.446 23.786 278.446 21.966C278.446 20.79 278.544 19.53 278.74 18.186C278.964 16.814 279.356 15.554 279.916 14.406C280.504 13.23 281.302 12.25 282.31 11.466C283.318 10.682 284.62 10.29 286.216 10.29C287.98 10.29 289.324 10.724 290.248 11.592C291.172 12.432 291.634 13.678 291.634 15.33C291.634 16.03 291.494 16.618 291.214 17.094C290.962 17.57 290.556 17.808 289.996 17.808C289.38 17.808 288.862 17.514 288.442 16.926Z" fill="url(#paint13_linear_37_5)"/>
<path d="M298.449 10.5V24.78C298.449 25.06 298.463 25.41 298.491 25.83C298.519 26.25 298.589 26.67 298.701 27.09C298.841 27.482 299.037 27.832 299.289 28.14C299.541 28.42 299.891 28.56 300.339 28.56C301.711 28.56 302.719 27.034 303.363 23.982H304.917C304.609 25.746 304.217 27.146 303.741 28.182C303.265 29.19 302.761 29.96 302.229 30.492C301.697 31.024 301.151 31.36 300.591 31.5C300.031 31.668 299.527 31.752 299.079 31.752C298.099 31.752 297.301 31.57 296.685 31.206C296.069 30.814 295.579 30.324 295.215 29.736C294.851 29.148 294.599 28.49 294.459 27.762C294.319 27.034 294.249 26.334 294.249 25.662V10.5H298.449ZM293.493 4.452C293.493 3.696 293.759 3.038 294.291 2.478C294.823 1.918 295.481 1.638 296.265 1.638C297.021 1.638 297.679 1.918 298.239 2.478C298.799 3.038 299.079 3.696 299.079 4.452C299.079 5.236 298.799 5.894 298.239 6.426C297.679 6.958 297.021 7.224 296.265 7.224C295.481 7.224 294.823 6.958 294.291 6.426C293.759 5.894 293.493 5.236 293.493 4.452Z" fill="url(#paint14_linear_37_5)"/>
<path d="M310.999 10.29C311.979 10.29 312.833 10.43 313.561 10.71C314.289 10.99 314.905 11.382 315.409 11.886C315.941 12.362 316.361 12.95 316.669 13.65C317.005 14.322 317.257 15.05 317.425 15.834C318.209 15.834 318.769 15.596 319.105 15.12C319.441 14.616 319.679 14.154 319.819 13.734H321.037C320.813 14.658 320.435 15.61 319.903 16.59C319.399 17.542 318.685 18.256 317.761 18.732C317.817 19.068 317.845 19.404 317.845 19.74C317.845 20.048 317.845 20.37 317.845 20.706C317.845 24.15 317.215 26.852 315.955 28.812C314.695 30.772 312.931 31.752 310.663 31.752C309.739 31.752 308.801 31.584 307.849 31.248C306.925 30.912 306.085 30.352 305.329 29.568C304.573 28.784 303.957 27.776 303.481 26.544C303.033 25.312 302.809 23.786 302.809 21.966C302.809 20.734 302.935 19.432 303.187 18.06C303.467 16.688 303.915 15.428 304.531 14.28C305.175 13.132 306.015 12.18 307.051 11.424C308.115 10.668 309.431 10.29 310.999 10.29ZM311.419 28.56C312.903 28.56 313.995 27.832 314.695 26.376C315.395 24.892 315.745 22.806 315.745 20.118C315.745 19.978 315.731 19.838 315.703 19.698C315.703 19.53 315.703 19.376 315.703 19.236C314.919 19.236 314.345 19.026 313.981 18.606C313.617 18.158 313.435 17.528 313.435 16.716C313.435 16.156 313.575 15.722 313.855 15.414C314.135 15.078 314.513 14.882 314.989 14.826C314.653 14.014 314.233 13.44 313.729 13.104C313.225 12.768 312.679 12.6 312.091 12.6C311.223 12.6 310.481 12.894 309.865 13.482C309.277 14.042 308.787 14.77 308.395 15.666C308.031 16.562 307.765 17.556 307.597 18.648C307.429 19.712 307.345 20.762 307.345 21.798C307.345 23.17 307.471 24.29 307.723 25.158C307.975 26.026 308.297 26.712 308.689 27.216C309.081 27.72 309.515 28.07 309.991 28.266C310.467 28.462 310.943 28.56 311.419 28.56Z" fill="url(#paint15_linear_37_5)"/>
<path d="M19.6652 38.795L16.7392 37.484L18.3352 34.197L0.000244141 22.797V19.377L14.6492 10.314L16.3782 13.031L3.13525 21.106L19.7412 31.29L33.8392 2.201L36.7272 3.588L34.9222 7.331L54.3783 19.358V22.797L39.8812 31.86L38.0002 29.219L51.2432 21.106L33.4972 10.238L19.6652 38.795Z" fill="url(#paint16_linear_37_5)"/>
<defs>
<linearGradient id="paint0_linear_37_5" x1="31" y1="-13" x2="31" y2="53" gradientUnits="userSpaceOnUse">
<stop stop-color="#ECECEC"/>
<stop offset="1" stop-color="#024A3D"/>
</linearGradient>
<linearGradient id="paint1_linear_37_5" x1="31" y1="-13" x2="31" y2="53" gradientUnits="userSpaceOnUse">
<stop stop-color="#ECECEC"/>
<stop offset="1" stop-color="#024A3D"/>
</linearGradient>
<linearGradient id="paint2_linear_37_5" x1="31" y1="-13" x2="31" y2="53" gradientUnits="userSpaceOnUse">
<stop stop-color="#ECECEC"/>
<stop offset="1" stop-color="#024A3D"/>
</linearGradient>
<linearGradient id="paint3_linear_37_5" x1="31" y1="-13" x2="31" y2="53" gradientUnits="userSpaceOnUse">
<stop stop-color="#ECECEC"/>
<stop offset="1" stop-color="#024A3D"/>
</linearGradient>
<linearGradient id="paint4_linear_37_5" x1="31" y1="-13" x2="31" y2="53" gradientUnits="userSpaceOnUse">
<stop stop-color="#ECECEC"/>
<stop offset="1" stop-color="#024A3D"/>
</linearGradient>
<linearGradient id="paint5_linear_37_5" x1="31" y1="-13" x2="31" y2="53" gradientUnits="userSpaceOnUse">
<stop stop-color="#ECECEC"/>
<stop offset="1" stop-color="#024A3D"/>
</linearGradient>
<linearGradient id="paint6_linear_37_5" x1="31" y1="-13" x2="31" y2="53" gradientUnits="userSpaceOnUse">
<stop stop-color="#ECECEC"/>
<stop offset="1" stop-color="#024A3D"/>
</linearGradient>
<linearGradient id="paint7_linear_37_5" x1="31" y1="-13" x2="31" y2="53" gradientUnits="userSpaceOnUse">
<stop stop-color="#ECECEC"/>
<stop offset="1" stop-color="#024A3D"/>
</linearGradient>
<linearGradient id="paint8_linear_37_5" x1="31" y1="-13" x2="31" y2="53" gradientUnits="userSpaceOnUse">
<stop stop-color="#ECECEC"/>
<stop offset="1" stop-color="#024A3D"/>
</linearGradient>
<linearGradient id="paint9_linear_37_5" x1="31" y1="-13" x2="31" y2="53" gradientUnits="userSpaceOnUse">
<stop stop-color="#ECECEC"/>
<stop offset="1" stop-color="#024A3D"/>
</linearGradient>
<linearGradient id="paint10_linear_37_5" x1="31" y1="-13" x2="31" y2="53" gradientUnits="userSpaceOnUse">
<stop stop-color="#ECECEC"/>
<stop offset="1" stop-color="#024A3D"/>
</linearGradient>
<linearGradient id="paint11_linear_37_5" x1="31" y1="-13" x2="31" y2="53" gradientUnits="userSpaceOnUse">
<stop stop-color="#ECECEC"/>
<stop offset="1" stop-color="#024A3D"/>
</linearGradient>
<linearGradient id="paint12_linear_37_5" x1="31" y1="-13" x2="31" y2="53" gradientUnits="userSpaceOnUse">
<stop stop-color="#ECECEC"/>
<stop offset="1" stop-color="#024A3D"/>
</linearGradient>
<linearGradient id="paint13_linear_37_5" x1="31" y1="-13" x2="31" y2="53" gradientUnits="userSpaceOnUse">
<stop stop-color="#ECECEC"/>
<stop offset="1" stop-color="#024A3D"/>
</linearGradient>
<linearGradient id="paint14_linear_37_5" x1="31" y1="-13" x2="31" y2="53" gradientUnits="userSpaceOnUse">
<stop stop-color="#ECECEC"/>
<stop offset="1" stop-color="#024A3D"/>
</linearGradient>
<linearGradient id="paint15_linear_37_5" x1="31" y1="-13" x2="31" y2="53" gradientUnits="userSpaceOnUse">
<stop stop-color="#ECECEC"/>
<stop offset="1" stop-color="#024A3D"/>
</linearGradient>
<linearGradient id="paint16_linear_37_5" x1="31" y1="-13" x2="31" y2="53" gradientUnits="userSpaceOnUse">
<stop stop-color="#ECECEC"/>
<stop offset="1" stop-color="#024A3D"/>
</linearGradient>
</defs>
</svg>
